<svg width='35px' xmlns="http://www.w3.org/2000/svg" xmlns:xlink="http://www.w3.org/1999/xlink" xml:space="preserve" version="1.1" style="shape-rendering:geometricPrecision;text-rendering:geometricPrecision;image-rendering:optimizeQuality;" viewBox="0 0 847 1058.75" x="0px" y="0px" fill-rule="evenodd" clip-rule="evenodd"><defs><style type="text/css">
   
    .fil0 {fill:black}
   
  </style></defs><g><path class="fil0" d="M421 23c112,0 203,91 203,203 0,112 -91,203 -203,203 -112,0 -203,-91 -203,-203 0,-112 91,-203 203,-203zm0 21c100,0 182,81 182,182 0,101 -82,183 -182,183 -101,0 -183,-82 -183,-183 0,-101 82,-182 183,-182zm-126 465l257 0c87,0 159,71 159,159l0 155 21 0 0 -155c0,-99 -81,-180 -180,-180l-257 0c-99,0 -180,81 -180,180l0 155 21 0 0 -155c0,-88 71,-159 159,-159z"/></g></svg>